<svg width="881" height="246" viewBox="0 0 881 246" fill="none" xmlns="http://www.w3.org/2000/svg">
<path d="M43.8556 88.44C50.149 88.44 55.6423 89.72 60.3356 92.28C65.1356 94.84 68.8156 98.2 71.3756 102.36V89.72H98.7356V178.84C98.7356 187.053 97.0823 194.467 93.7756 201.08C90.5756 207.8 85.6156 213.133 78.8956 217.08C72.2823 221.027 64.0156 223 54.0956 223C40.869 223 30.149 219.853 21.9356 213.56C13.7223 207.373 9.02896 198.947 7.85563 188.28H34.8956C35.749 191.693 37.7756 194.36 40.9756 196.28C44.1756 198.307 48.1223 199.32 52.8156 199.32C58.469 199.32 62.949 197.667 66.2556 194.36C69.669 191.16 71.3756 185.987 71.3756 178.84V166.2C68.709 170.36 65.029 173.773 60.3356 176.44C55.6423 179 50.149 180.28 43.8556 180.28C36.4956 180.28 29.829 178.413 23.8556 174.68C17.8823 170.84 13.1356 165.453 9.61563 158.52C6.20229 151.48 4.49563 143.373 4.49563 134.2C4.49563 125.027 6.20229 116.973 9.61563 110.04C13.1356 103.107 17.8823 97.7733 23.8556 94.04C29.829 90.3067 36.4956 88.44 43.8556 88.44ZM71.3756 134.36C71.3756 127.533 69.4556 122.147 65.6156 118.2C61.8823 114.253 57.2956 112.28 51.8556 112.28C46.4156 112.28 41.7756 114.253 37.9356 118.2C34.2023 122.04 32.3356 127.373 32.3356 134.2C32.3356 141.027 34.2023 146.467 37.9356 150.52C41.7756 154.467 46.4156 156.44 51.8556 156.44C57.2956 156.44 61.8823 154.467 65.6156 150.52C69.4556 146.573 71.3756 141.187 71.3756 134.36ZM159.169 180.28C150.423 180.28 142.529 178.413 135.489 174.68C128.556 170.947 123.063 165.613 119.009 158.68C115.063 151.747 113.089 143.64 113.089 134.36C113.089 125.187 115.116 117.133 119.169 110.2C123.223 103.16 128.769 97.7733 135.809 94.04C142.849 90.3067 150.743 88.44 159.489 88.44C168.236 88.44 176.129 90.3067 183.169 94.04C190.209 97.7733 195.756 103.16 199.809 110.2C203.863 117.133 205.889 125.187 205.889 134.36C205.889 143.533 203.809 151.64 199.649 158.68C195.596 165.613 189.996 170.947 182.849 174.68C175.809 178.413 167.916 180.28 159.169 180.28ZM159.169 156.6C164.396 156.6 168.823 154.68 172.449 150.84C176.183 147 178.049 141.507 178.049 134.36C178.049 127.213 176.236 121.72 172.609 117.88C169.089 114.04 164.716 112.12 159.489 112.12C154.156 112.12 149.729 114.04 146.209 117.88C142.689 121.613 140.929 127.107 140.929 134.36C140.929 141.507 142.636 147 146.049 150.84C149.569 154.68 153.943 156.6 159.169 156.6ZM270.164 155.8V179H256.244C246.324 179 238.591 176.6 233.044 171.8C227.498 166.893 224.724 158.947 224.724 147.96V112.44H213.844V89.72H224.724V67.96H252.084V89.72H270.004V112.44H252.084V148.28C252.084 150.947 252.724 152.867 254.004 154.04C255.284 155.213 257.418 155.8 260.404 155.8H270.164ZM279.964 134.2C279.964 125.027 281.671 116.973 285.084 110.04C288.604 103.107 293.351 97.7733 299.324 94.04C305.298 90.3067 311.964 88.44 319.324 88.44C325.618 88.44 331.111 89.72 335.804 92.28C340.604 94.84 344.284 98.2 346.844 102.36V89.72H374.204V179H346.844V166.36C344.178 170.52 340.444 173.88 335.644 176.44C330.951 179 325.458 180.28 319.164 180.28C311.911 180.28 305.298 178.413 299.324 174.68C293.351 170.84 288.604 165.453 285.084 158.52C281.671 151.48 279.964 143.373 279.964 134.2ZM346.844 134.36C346.844 127.533 344.924 122.147 341.084 118.2C337.351 114.253 332.764 112.28 327.324 112.28C321.884 112.28 317.244 114.253 313.404 118.2C309.671 122.04 307.804 127.373 307.804 134.2C307.804 141.027 309.671 146.467 313.404 150.52C317.244 154.467 321.884 156.44 327.324 156.44C332.764 156.44 337.351 154.467 341.084 150.52C344.924 146.573 346.844 141.187 346.844 134.36ZM421.358 104.6C424.558 99.6933 428.558 95.8533 433.358 93.08C438.158 90.2 443.491 88.76 449.358 88.76V117.72H441.838C435.011 117.72 429.891 119.213 426.478 122.2C423.065 125.08 421.358 130.2 421.358 137.56V179H393.998V89.72H421.358V104.6ZM456.996 134.2C456.996 125.027 458.702 116.973 462.116 110.04C465.636 103.107 470.382 97.7733 476.356 94.04C482.329 90.3067 488.996 88.44 496.356 88.44C502.222 88.44 507.556 89.6667 512.356 92.12C517.262 94.5733 521.102 97.88 523.876 102.04V60.6H551.236V179H523.876V166.2C521.316 170.467 517.636 173.88 512.836 176.44C508.142 179 502.649 180.28 496.356 180.28C488.996 180.28 482.329 178.413 476.356 174.68C470.382 170.84 465.636 165.453 462.116 158.52C458.702 151.48 456.996 143.373 456.996 134.2ZM523.876 134.36C523.876 127.533 521.956 122.147 518.116 118.2C514.382 114.253 509.796 112.28 504.356 112.28C498.916 112.28 494.276 114.253 490.436 118.2C486.702 122.04 484.836 127.373 484.836 134.2C484.836 141.027 486.702 146.467 490.436 150.52C494.276 154.467 498.916 156.44 504.356 156.44C509.796 156.44 514.382 154.467 518.116 150.52C521.956 146.573 523.876 141.187 523.876 134.36ZM611.669 180.28C602.923 180.28 595.029 178.413 587.989 174.68C581.056 170.947 575.563 165.613 571.509 158.68C567.563 151.747 565.589 143.64 565.589 134.36C565.589 125.187 567.616 117.133 571.669 110.2C575.723 103.16 581.269 97.7733 588.309 94.04C595.349 90.3067 603.243 88.44 611.989 88.44C620.736 88.44 628.629 90.3067 635.669 94.04C642.709 97.7733 648.256 103.16 652.309 110.2C656.363 117.133 658.389 125.187 658.389 134.36C658.389 143.533 656.309 151.64 652.149 158.68C648.096 165.613 642.496 170.947 635.349 174.68C628.309 178.413 620.416 180.28 611.669 180.28ZM611.669 156.6C616.896 156.6 621.323 154.68 624.949 150.84C628.683 147 630.549 141.507 630.549 134.36C630.549 127.213 628.736 121.72 625.109 117.88C621.589 114.04 617.216 112.12 611.989 112.12C606.656 112.12 602.229 114.04 598.709 117.88C595.189 121.613 593.429 127.107 593.429 134.36C593.429 141.507 595.136 147 598.549 150.84C602.069 154.68 606.443 156.6 611.669 156.6Z" fill="white"/>
<rect x="694" y="123" width="187" height="103" rx="32" fill="#003F8C"/>
<path d="M727.823 177.08C727.823 173.411 728.506 170.189 729.871 167.416C731.279 164.643 733.178 162.509 735.567 161.016C737.957 159.523 740.623 158.776 743.567 158.776C745.914 158.776 748.047 159.267 749.967 160.248C751.93 161.229 753.466 162.552 754.575 164.216V147.64H765.519V195H754.575V189.88C753.551 191.587 752.079 192.952 750.159 193.976C748.282 195 746.085 195.512 743.567 195.512C740.623 195.512 737.957 194.765 735.567 193.272C733.178 191.736 731.279 189.581 729.871 186.808C728.506 183.992 727.823 180.749 727.823 177.08ZM754.575 177.144C754.575 174.413 753.807 172.259 752.271 170.68C750.778 169.101 748.943 168.312 746.767 168.312C744.591 168.312 742.735 169.101 741.199 170.68C739.706 172.216 738.959 174.349 738.959 177.08C738.959 179.811 739.706 181.987 741.199 183.608C742.735 185.187 744.591 185.976 746.767 185.976C748.943 185.976 750.778 185.187 752.271 183.608C753.807 182.029 754.575 179.875 754.575 177.144ZM807.101 176.568C807.101 177.592 807.037 178.659 806.909 179.768H782.141C782.311 181.987 783.015 183.693 784.253 184.888C785.533 186.04 787.09 186.616 788.925 186.616C791.655 186.616 793.554 185.464 794.621 183.16H806.269C805.671 185.507 804.583 187.619 803.005 189.496C801.469 191.373 799.527 192.845 797.181 193.912C794.834 194.979 792.21 195.512 789.309 195.512C785.81 195.512 782.695 194.765 779.965 193.272C777.234 191.779 775.101 189.645 773.565 186.872C772.029 184.099 771.261 180.856 771.261 177.144C771.261 173.432 772.007 170.189 773.501 167.416C775.037 164.643 777.17 162.509 779.901 161.016C782.631 159.523 785.767 158.776 789.309 158.776C792.765 158.776 795.837 159.501 798.525 160.952C801.213 162.403 803.303 164.472 804.797 167.16C806.333 169.848 807.101 172.984 807.101 176.568ZM795.901 173.688C795.901 171.811 795.261 170.317 793.981 169.208C792.701 168.099 791.101 167.544 789.181 167.544C787.346 167.544 785.789 168.077 784.509 169.144C783.271 170.211 782.503 171.725 782.205 173.688H795.901ZM828.938 184.76L836.682 159.288H848.33L835.658 195H822.154L809.482 159.288H821.194L828.938 184.76Z" fill="white"/>
</svg>
