<svg width="727" height="725" viewBox="0 0 727 725" fill="none" xmlns="http://www.w3.org/2000/svg">
<path d="M100.222 271.691C137.323 155.707 245.135 77 366.91 77H401C555.64 77 681 202.36 681 357V458.462C681 537.149 616.17 600.382 537.506 598.418L186.772 589.662C93.419 587.332 28.4712 495.995 56.9224 407.052L100.222 271.691Z" fill="#121212"/>
<path d="M389.982 594.398L478.865 643.045L392.294 695.697L389.982 594.398Z" fill="#0066FF"/>
<path d="M476.592 54.6982L577.143 42.1992L537.692 135.529L476.592 54.6982Z" fill="#5EC775"/>
<rect x="97" y="135.924" width="33" height="116" transform="rotate(-24.9575 97 135.924)" fill="#FFD66F"/>
<rect x="90" y="505.443" width="80" height="80" transform="rotate(-8.94832 90 505.443)" fill="#AE707D"/>
<circle cx="681" cy="384" r="46" fill="#6C6CDA"/>
</svg>
